<svg width="45" height="52" viewBox="0 0 45 52" fill="none" xmlns="http://www.w3.org/2000/svg">
<rect width="45" height="52" fill="#1E1E1E"/>
<g id="Register" clip-path="url(#clip0_0_1)">
<rect width="1440" height="1024" transform="translate(-181 -246)" fill="black"/>
<rect id="bg" x="-181" y="-246" width="1440" height="1024" fill="url(#paint0_linear_0_1)"/>
<g id="Main" clip-path="url(#clip1_0_1)">
<g id="about">
<g id="Logo">
<g id="Group">
<path id="Vector" d="M11.1341 6.35878L0 12.7425V25.5224V38.3023L2.11959 39.5117L4.23918 40.7211V27.9661V15.2237L13.1789 10.1242C18.0913 7.30636 22.2058 5.01221 22.3181 5.01221C22.4303 5.01221 26.5323 7.30636 31.4572 10.1117L40.3969 15.1987V25.5099V35.8211L31.4572 40.9206C26.5448 43.7384 22.4303 46.0326 22.3181 46.0326C22.2058 46.0326 20.0114 44.8231 17.4181 43.3519L12.7176 40.6712V30.4224V20.1735L17.5178 17.4305L22.3181 14.6875L27.1183 17.4305L31.9186 20.1735V25.5224V30.8712L27.1183 33.6142L22.3181 36.3572L21.757 36.0331L21.1959 35.7214L21.2209 30.4224L21.2583 25.1109L23.9015 23.6023C25.884 22.4677 26.5074 22.0562 26.3952 21.9565C26.1209 21.7071 22.4552 19.6623 22.2931 19.6748C22.2058 19.6748 20.984 20.3356 19.5751 21.146L17.0191 22.6173L16.9817 30.4099L16.9567 38.1901L19.6374 39.7236L22.3181 41.2448L29.2379 37.2924L36.1577 33.3399V25.5099V17.6924L29.2379 13.7399L22.3305 9.78753L15.3982 13.7399L8.47837 17.7048V30.4348L8.49084 43.1649L15.3982 47.1173L22.3181 51.0697L33.4771 44.686L44.6361 38.3147V25.5224V12.73L33.527 6.38371C27.4051 2.88015 22.3679 0.0124664 22.3305 0C22.2931 0 17.2435 2.85522 11.1341 6.35878Z" fill="white"/>
</g>
</g>
</g>
</g>
</g>
<defs>
<linearGradient id="paint0_linear_0_1" x1="1259" y1="266" x2="-181" y2="266" gradientUnits="userSpaceOnUse">
<stop stop-color="#118A7D" stop-opacity="0.05"/>
<stop offset="1" stop-color="#18975D" stop-opacity="0.15"/>
</linearGradient>
<clipPath id="clip0_0_1">
<rect width="1440" height="1024" fill="white" transform="translate(-181 -246)"/>
</clipPath>
<clipPath id="clip1_0_1">
<rect width="1200" height="1024" fill="white" transform="translate(-61 -246)"/>
</clipPath>
</defs>
</svg>
